<mxfile host="app.diagrams.net" modified="2023-06-14T09:12:36.226Z" agent="Mozilla/5.0 (Macintosh; Intel Mac OS X 10_15_7) AppleWebKit/537.36 (KHTML, like Gecko) Chrome/114.0.0.0 Safari/537.36" etag="fdc3I528jpvQ7omXdQCV" version="21.3.3" type="github">
  <diagram id="C5RBs43oDa-KdzZeNtuy" name="Page-1">
    <mxGraphModel dx="954" dy="562" grid="0" gridSize="10" guides="1" tooltips="1" connect="1" arrows="1" fold="1" page="1" pageScale="1" pageWidth="827" pageHeight="1169" math="0" shadow="0">
      <root>
        <mxCell id="WIyWlLk6GJQsqaUBKTNV-0" />
        <mxCell id="WIyWlLk6GJQsqaUBKTNV-1" parent="WIyWlLk6GJQsqaUBKTNV-0" />
        <mxCell id="WIyWlLk6GJQsqaUBKTNV-2" value="" style="rounded=0;html=1;jettySize=auto;orthogonalLoop=1;fontSize=11;endArrow=block;endFill=0;endSize=8;strokeWidth=1;shadow=0;labelBackgroundColor=none;edgeStyle=orthogonalEdgeStyle;" parent="WIyWlLk6GJQsqaUBKTNV-1" source="WIyWlLk6GJQsqaUBKTNV-3" target="WIyWlLk6GJQsqaUBKTNV-6" edge="1">
          <mxGeometry relative="1" as="geometry" />
        </mxCell>
        <mxCell id="WIyWlLk6GJQsqaUBKTNV-3" value="查询同步机构信息" style="rounded=1;whiteSpace=wrap;html=1;fontSize=12;glass=0;strokeWidth=1;shadow=0;" parent="WIyWlLk6GJQsqaUBKTNV-1" vertex="1">
          <mxGeometry x="160" y="110" width="120" height="40" as="geometry" />
        </mxCell>
        <mxCell id="WIyWlLk6GJQsqaUBKTNV-4" value="是" style="rounded=0;html=1;jettySize=auto;orthogonalLoop=1;fontSize=11;endArrow=block;endFill=0;endSize=8;strokeWidth=1;shadow=0;labelBackgroundColor=none;edgeStyle=orthogonalEdgeStyle;" parent="WIyWlLk6GJQsqaUBKTNV-1" source="WIyWlLk6GJQsqaUBKTNV-6" target="Fh7XtQyrYAxtUZRleCaC-4" edge="1">
          <mxGeometry y="20" relative="1" as="geometry">
            <mxPoint as="offset" />
            <mxPoint x="220" y="290" as="targetPoint" />
          </mxGeometry>
        </mxCell>
        <mxCell id="Fh7XtQyrYAxtUZRleCaC-7" value="否" style="edgeStyle=orthogonalEdgeStyle;rounded=0;orthogonalLoop=1;jettySize=auto;html=1;entryX=1;entryY=0.5;entryDx=0;entryDy=0;entryPerimeter=0;exitX=1;exitY=0.5;exitDx=0;exitDy=0;" edge="1" parent="WIyWlLk6GJQsqaUBKTNV-1" source="WIyWlLk6GJQsqaUBKTNV-6" target="Fh7XtQyrYAxtUZRleCaC-3">
          <mxGeometry relative="1" as="geometry">
            <Array as="points">
              <mxPoint x="390" y="210" />
              <mxPoint x="390" y="460" />
            </Array>
          </mxGeometry>
        </mxCell>
        <mxCell id="WIyWlLk6GJQsqaUBKTNV-6" value="是否已开租户" style="rhombus;whiteSpace=wrap;html=1;shadow=0;fontFamily=Helvetica;fontSize=12;align=center;strokeWidth=1;spacing=6;spacingTop=-4;" parent="WIyWlLk6GJQsqaUBKTNV-1" vertex="1">
          <mxGeometry x="170" y="180" width="100" height="60" as="geometry" />
        </mxCell>
        <mxCell id="Fh7XtQyrYAxtUZRleCaC-1" style="edgeStyle=orthogonalEdgeStyle;rounded=0;orthogonalLoop=1;jettySize=auto;html=1;entryX=0.5;entryY=0;entryDx=0;entryDy=0;" edge="1" parent="WIyWlLk6GJQsqaUBKTNV-1" source="Fh7XtQyrYAxtUZRleCaC-0" target="WIyWlLk6GJQsqaUBKTNV-3">
          <mxGeometry relative="1" as="geometry" />
        </mxCell>
        <mxCell id="Fh7XtQyrYAxtUZRleCaC-0" value="开始" style="strokeWidth=1;html=1;shape=mxgraph.flowchart.start_1;whiteSpace=wrap;" vertex="1" parent="WIyWlLk6GJQsqaUBKTNV-1">
          <mxGeometry x="185" y="40" width="70" height="40" as="geometry" />
        </mxCell>
        <mxCell id="Fh7XtQyrYAxtUZRleCaC-3" value="结束" style="strokeWidth=1;html=1;shape=mxgraph.flowchart.start_1;whiteSpace=wrap;" vertex="1" parent="WIyWlLk6GJQsqaUBKTNV-1">
          <mxGeometry x="180" y="440" width="80" height="40" as="geometry" />
        </mxCell>
        <mxCell id="Fh7XtQyrYAxtUZRleCaC-6" style="edgeStyle=orthogonalEdgeStyle;rounded=0;orthogonalLoop=1;jettySize=auto;html=1;" edge="1" parent="WIyWlLk6GJQsqaUBKTNV-1" source="Fh7XtQyrYAxtUZRleCaC-4" target="Fh7XtQyrYAxtUZRleCaC-5">
          <mxGeometry relative="1" as="geometry" />
        </mxCell>
        <mxCell id="Fh7XtQyrYAxtUZRleCaC-4" value="分页同步部门数据" style="rounded=1;whiteSpace=wrap;html=1;fontSize=12;glass=0;strokeWidth=1;shadow=0;" vertex="1" parent="WIyWlLk6GJQsqaUBKTNV-1">
          <mxGeometry x="160" y="280" width="120" height="40" as="geometry" />
        </mxCell>
        <mxCell id="Fh7XtQyrYAxtUZRleCaC-8" value="是" style="edgeStyle=orthogonalEdgeStyle;rounded=0;orthogonalLoop=1;jettySize=auto;html=1;entryX=0;entryY=0.5;entryDx=0;entryDy=0;entryPerimeter=0;exitX=0;exitY=0.5;exitDx=0;exitDy=0;" edge="1" parent="WIyWlLk6GJQsqaUBKTNV-1" source="Fh7XtQyrYAxtUZRleCaC-5" target="Fh7XtQyrYAxtUZRleCaC-3">
          <mxGeometry relative="1" as="geometry">
            <Array as="points">
              <mxPoint x="120" y="380" />
              <mxPoint x="120" y="460" />
            </Array>
          </mxGeometry>
        </mxCell>
        <mxCell id="Fh7XtQyrYAxtUZRleCaC-9" style="edgeStyle=orthogonalEdgeStyle;rounded=0;orthogonalLoop=1;jettySize=auto;html=1;entryX=1;entryY=0.5;entryDx=0;entryDy=0;exitX=1;exitY=0.5;exitDx=0;exitDy=0;" edge="1" parent="WIyWlLk6GJQsqaUBKTNV-1" source="Fh7XtQyrYAxtUZRleCaC-5" target="Fh7XtQyrYAxtUZRleCaC-4">
          <mxGeometry relative="1" as="geometry" />
        </mxCell>
        <mxCell id="Fh7XtQyrYAxtUZRleCaC-10" value="否" style="edgeLabel;html=1;align=center;verticalAlign=middle;resizable=0;points=[];" vertex="1" connectable="0" parent="Fh7XtQyrYAxtUZRleCaC-9">
          <mxGeometry x="-0.0909" y="-2" relative="1" as="geometry">
            <mxPoint as="offset" />
          </mxGeometry>
        </mxCell>
        <mxCell id="Fh7XtQyrYAxtUZRleCaC-5" value="是否已完成" style="rhombus;whiteSpace=wrap;html=1;shadow=0;fontFamily=Helvetica;fontSize=12;align=center;strokeWidth=1;spacing=6;spacingTop=-4;" vertex="1" parent="WIyWlLk6GJQsqaUBKTNV-1">
          <mxGeometry x="170" y="350" width="100" height="60" as="geometry" />
        </mxCell>
        <mxCell id="Fh7XtQyrYAxtUZRleCaC-11" value="" style="rounded=0;html=1;jettySize=auto;orthogonalLoop=1;fontSize=11;endArrow=block;endFill=0;endSize=8;strokeWidth=1;shadow=0;labelBackgroundColor=none;edgeStyle=orthogonalEdgeStyle;" edge="1" parent="WIyWlLk6GJQsqaUBKTNV-1" source="Fh7XtQyrYAxtUZRleCaC-12" target="Fh7XtQyrYAxtUZRleCaC-15">
          <mxGeometry relative="1" as="geometry" />
        </mxCell>
        <mxCell id="Fh7XtQyrYAxtUZRleCaC-12" value="查询同步机构信息" style="rounded=1;whiteSpace=wrap;html=1;fontSize=12;glass=0;strokeWidth=1;shadow=0;" vertex="1" parent="WIyWlLk6GJQsqaUBKTNV-1">
          <mxGeometry x="560" y="110" width="120" height="40" as="geometry" />
        </mxCell>
        <mxCell id="Fh7XtQyrYAxtUZRleCaC-13" value="是" style="rounded=0;html=1;jettySize=auto;orthogonalLoop=1;fontSize=11;endArrow=block;endFill=0;endSize=8;strokeWidth=1;shadow=0;labelBackgroundColor=none;edgeStyle=orthogonalEdgeStyle;" edge="1" parent="WIyWlLk6GJQsqaUBKTNV-1" source="Fh7XtQyrYAxtUZRleCaC-15" target="Fh7XtQyrYAxtUZRleCaC-20">
          <mxGeometry y="20" relative="1" as="geometry">
            <mxPoint as="offset" />
            <mxPoint x="620" y="300" as="targetPoint" />
          </mxGeometry>
        </mxCell>
        <mxCell id="Fh7XtQyrYAxtUZRleCaC-14" value="否" style="edgeStyle=orthogonalEdgeStyle;rounded=0;orthogonalLoop=1;jettySize=auto;html=1;entryX=1;entryY=0.5;entryDx=0;entryDy=0;entryPerimeter=0;exitX=1;exitY=0.5;exitDx=0;exitDy=0;" edge="1" parent="WIyWlLk6GJQsqaUBKTNV-1" source="Fh7XtQyrYAxtUZRleCaC-15" target="Fh7XtQyrYAxtUZRleCaC-18">
          <mxGeometry relative="1" as="geometry">
            <Array as="points">
              <mxPoint x="760" y="210" />
              <mxPoint x="760" y="500" />
            </Array>
          </mxGeometry>
        </mxCell>
        <mxCell id="Fh7XtQyrYAxtUZRleCaC-15" value="是否已开租户" style="rhombus;whiteSpace=wrap;html=1;shadow=0;fontFamily=Helvetica;fontSize=12;align=center;strokeWidth=1;spacing=6;spacingTop=-4;" vertex="1" parent="WIyWlLk6GJQsqaUBKTNV-1">
          <mxGeometry x="570" y="180" width="100" height="60" as="geometry" />
        </mxCell>
        <mxCell id="Fh7XtQyrYAxtUZRleCaC-16" style="edgeStyle=orthogonalEdgeStyle;rounded=0;orthogonalLoop=1;jettySize=auto;html=1;entryX=0.5;entryY=0;entryDx=0;entryDy=0;" edge="1" parent="WIyWlLk6GJQsqaUBKTNV-1" source="Fh7XtQyrYAxtUZRleCaC-17" target="Fh7XtQyrYAxtUZRleCaC-12">
          <mxGeometry relative="1" as="geometry" />
        </mxCell>
        <mxCell id="Fh7XtQyrYAxtUZRleCaC-17" value="开始" style="strokeWidth=1;html=1;shape=mxgraph.flowchart.start_1;whiteSpace=wrap;" vertex="1" parent="WIyWlLk6GJQsqaUBKTNV-1">
          <mxGeometry x="585" y="50" width="70" height="40" as="geometry" />
        </mxCell>
        <mxCell id="Fh7XtQyrYAxtUZRleCaC-18" value="结束" style="strokeWidth=1;html=1;shape=mxgraph.flowchart.start_1;whiteSpace=wrap;" vertex="1" parent="WIyWlLk6GJQsqaUBKTNV-1">
          <mxGeometry x="585" y="480" width="80" height="40" as="geometry" />
        </mxCell>
        <mxCell id="Fh7XtQyrYAxtUZRleCaC-28" style="edgeStyle=orthogonalEdgeStyle;rounded=0;orthogonalLoop=1;jettySize=auto;html=1;entryX=0.5;entryY=0;entryDx=0;entryDy=0;" edge="1" parent="WIyWlLk6GJQsqaUBKTNV-1" source="Fh7XtQyrYAxtUZRleCaC-20" target="Fh7XtQyrYAxtUZRleCaC-26">
          <mxGeometry relative="1" as="geometry" />
        </mxCell>
        <mxCell id="Fh7XtQyrYAxtUZRleCaC-20" value="分页同步部门数据" style="rounded=1;whiteSpace=wrap;html=1;fontSize=12;glass=0;strokeWidth=1;shadow=0;" vertex="1" parent="WIyWlLk6GJQsqaUBKTNV-1">
          <mxGeometry x="560" y="270" width="120" height="40" as="geometry" />
        </mxCell>
        <mxCell id="Fh7XtQyrYAxtUZRleCaC-21" value="是" style="edgeStyle=orthogonalEdgeStyle;rounded=0;orthogonalLoop=1;jettySize=auto;html=1;entryX=0;entryY=0.5;entryDx=0;entryDy=0;entryPerimeter=0;exitX=0;exitY=0.5;exitDx=0;exitDy=0;" edge="1" parent="WIyWlLk6GJQsqaUBKTNV-1" source="Fh7XtQyrYAxtUZRleCaC-24" target="Fh7XtQyrYAxtUZRleCaC-18">
          <mxGeometry relative="1" as="geometry">
            <Array as="points">
              <mxPoint x="520" y="435" />
              <mxPoint x="520" y="500" />
            </Array>
          </mxGeometry>
        </mxCell>
        <mxCell id="Fh7XtQyrYAxtUZRleCaC-22" style="edgeStyle=orthogonalEdgeStyle;rounded=0;orthogonalLoop=1;jettySize=auto;html=1;entryX=1;entryY=0.5;entryDx=0;entryDy=0;exitX=1;exitY=0.5;exitDx=0;exitDy=0;" edge="1" parent="WIyWlLk6GJQsqaUBKTNV-1" source="Fh7XtQyrYAxtUZRleCaC-24" target="Fh7XtQyrYAxtUZRleCaC-20">
          <mxGeometry relative="1" as="geometry">
            <Array as="points">
              <mxPoint x="710" y="435" />
              <mxPoint x="710" y="290" />
            </Array>
          </mxGeometry>
        </mxCell>
        <mxCell id="Fh7XtQyrYAxtUZRleCaC-23" value="否" style="edgeLabel;html=1;align=center;verticalAlign=middle;resizable=0;points=[];" vertex="1" connectable="0" parent="Fh7XtQyrYAxtUZRleCaC-22">
          <mxGeometry x="-0.0909" y="-2" relative="1" as="geometry">
            <mxPoint as="offset" />
          </mxGeometry>
        </mxCell>
        <mxCell id="Fh7XtQyrYAxtUZRleCaC-24" value="是否已完成" style="rhombus;whiteSpace=wrap;html=1;shadow=0;fontFamily=Helvetica;fontSize=12;align=center;strokeWidth=1;spacing=6;spacingTop=-4;" vertex="1" parent="WIyWlLk6GJQsqaUBKTNV-1">
          <mxGeometry x="570" y="410" width="100" height="50" as="geometry" />
        </mxCell>
        <mxCell id="Fh7XtQyrYAxtUZRleCaC-27" style="edgeStyle=orthogonalEdgeStyle;rounded=0;orthogonalLoop=1;jettySize=auto;html=1;entryX=0.5;entryY=0;entryDx=0;entryDy=0;" edge="1" parent="WIyWlLk6GJQsqaUBKTNV-1" source="Fh7XtQyrYAxtUZRleCaC-26" target="Fh7XtQyrYAxtUZRleCaC-24">
          <mxGeometry relative="1" as="geometry" />
        </mxCell>
        <mxCell id="Fh7XtQyrYAxtUZRleCaC-26" value="分页同步部门用户" style="rounded=1;whiteSpace=wrap;html=1;fontSize=12;glass=0;strokeWidth=1;shadow=0;" vertex="1" parent="WIyWlLk6GJQsqaUBKTNV-1">
          <mxGeometry x="560" y="340" width="120" height="40" as="geometry" />
        </mxCell>
        <mxCell id="Fh7XtQyrYAxtUZRleCaC-29" value="" style="rounded=0;html=1;jettySize=auto;orthogonalLoop=1;fontSize=11;endArrow=block;endFill=0;endSize=8;strokeWidth=1;shadow=0;labelBackgroundColor=none;edgeStyle=orthogonalEdgeStyle;" edge="1" parent="WIyWlLk6GJQsqaUBKTNV-1" source="Fh7XtQyrYAxtUZRleCaC-30" target="Fh7XtQyrYAxtUZRleCaC-33">
          <mxGeometry relative="1" as="geometry" />
        </mxCell>
        <mxCell id="Fh7XtQyrYAxtUZRleCaC-30" value="查询同步机构信息" style="rounded=1;whiteSpace=wrap;html=1;fontSize=12;glass=0;strokeWidth=1;shadow=0;" vertex="1" parent="WIyWlLk6GJQsqaUBKTNV-1">
          <mxGeometry x="158" y="626" width="120" height="40" as="geometry" />
        </mxCell>
        <mxCell id="Fh7XtQyrYAxtUZRleCaC-32" value="否" style="edgeStyle=orthogonalEdgeStyle;rounded=0;orthogonalLoop=1;jettySize=auto;html=1;entryX=1;entryY=0.5;entryDx=0;entryDy=0;entryPerimeter=0;exitX=1;exitY=0.5;exitDx=0;exitDy=0;" edge="1" parent="WIyWlLk6GJQsqaUBKTNV-1" source="Fh7XtQyrYAxtUZRleCaC-33" target="Fh7XtQyrYAxtUZRleCaC-36">
          <mxGeometry relative="1" as="geometry">
            <Array as="points">
              <mxPoint x="336" y="720" />
              <mxPoint x="336" y="1084" />
            </Array>
          </mxGeometry>
        </mxCell>
        <mxCell id="Fh7XtQyrYAxtUZRleCaC-49" style="edgeStyle=orthogonalEdgeStyle;rounded=0;orthogonalLoop=1;jettySize=auto;html=1;exitX=0.5;exitY=1;exitDx=0;exitDy=0;entryX=0.5;entryY=0;entryDx=0;entryDy=0;" edge="1" parent="WIyWlLk6GJQsqaUBKTNV-1" source="Fh7XtQyrYAxtUZRleCaC-33" target="Fh7XtQyrYAxtUZRleCaC-46">
          <mxGeometry relative="1" as="geometry" />
        </mxCell>
        <mxCell id="Fh7XtQyrYAxtUZRleCaC-33" value="是否已开租户" style="rhombus;whiteSpace=wrap;html=1;shadow=0;fontFamily=Helvetica;fontSize=12;align=center;strokeWidth=1;spacing=6;spacingTop=-4;" vertex="1" parent="WIyWlLk6GJQsqaUBKTNV-1">
          <mxGeometry x="168" y="696" width="98" height="47" as="geometry" />
        </mxCell>
        <mxCell id="Fh7XtQyrYAxtUZRleCaC-34" style="edgeStyle=orthogonalEdgeStyle;rounded=0;orthogonalLoop=1;jettySize=auto;html=1;entryX=0.5;entryY=0;entryDx=0;entryDy=0;" edge="1" parent="WIyWlLk6GJQsqaUBKTNV-1" source="Fh7XtQyrYAxtUZRleCaC-35" target="Fh7XtQyrYAxtUZRleCaC-30">
          <mxGeometry relative="1" as="geometry" />
        </mxCell>
        <mxCell id="Fh7XtQyrYAxtUZRleCaC-35" value="开始" style="strokeWidth=1;html=1;shape=mxgraph.flowchart.start_1;whiteSpace=wrap;" vertex="1" parent="WIyWlLk6GJQsqaUBKTNV-1">
          <mxGeometry x="183" y="566" width="70" height="40" as="geometry" />
        </mxCell>
        <mxCell id="Fh7XtQyrYAxtUZRleCaC-36" value="结束" style="strokeWidth=1;html=1;shape=mxgraph.flowchart.start_1;whiteSpace=wrap;" vertex="1" parent="WIyWlLk6GJQsqaUBKTNV-1">
          <mxGeometry x="178" y="1064" width="80" height="40" as="geometry" />
        </mxCell>
        <mxCell id="Fh7XtQyrYAxtUZRleCaC-37" style="edgeStyle=orthogonalEdgeStyle;rounded=0;orthogonalLoop=1;jettySize=auto;html=1;entryX=0.5;entryY=0;entryDx=0;entryDy=0;" edge="1" parent="WIyWlLk6GJQsqaUBKTNV-1" source="Fh7XtQyrYAxtUZRleCaC-38" target="Fh7XtQyrYAxtUZRleCaC-44">
          <mxGeometry relative="1" as="geometry" />
        </mxCell>
        <mxCell id="Fh7XtQyrYAxtUZRleCaC-38" value="分页同步年级、班级数据" style="rounded=1;whiteSpace=wrap;html=1;fontSize=12;glass=0;strokeWidth=1;shadow=0;" vertex="1" parent="WIyWlLk6GJQsqaUBKTNV-1">
          <mxGeometry x="157" y="840" width="120" height="40" as="geometry" />
        </mxCell>
        <mxCell id="Fh7XtQyrYAxtUZRleCaC-51" style="edgeStyle=orthogonalEdgeStyle;rounded=0;orthogonalLoop=1;jettySize=auto;html=1;" edge="1" parent="WIyWlLk6GJQsqaUBKTNV-1" source="Fh7XtQyrYAxtUZRleCaC-42" target="Fh7XtQyrYAxtUZRleCaC-36">
          <mxGeometry relative="1" as="geometry" />
        </mxCell>
        <mxCell id="Fh7XtQyrYAxtUZRleCaC-52" value="是" style="edgeLabel;html=1;align=center;verticalAlign=middle;resizable=0;points=[];" vertex="1" connectable="0" parent="Fh7XtQyrYAxtUZRleCaC-51">
          <mxGeometry x="-0.1957" y="-1" relative="1" as="geometry">
            <mxPoint y="1" as="offset" />
          </mxGeometry>
        </mxCell>
        <mxCell id="Fh7XtQyrYAxtUZRleCaC-53" value="否" style="edgeStyle=orthogonalEdgeStyle;rounded=0;orthogonalLoop=1;jettySize=auto;html=1;entryX=0;entryY=0.5;entryDx=0;entryDy=0;exitX=0;exitY=0.5;exitDx=0;exitDy=0;" edge="1" parent="WIyWlLk6GJQsqaUBKTNV-1" source="Fh7XtQyrYAxtUZRleCaC-42" target="Fh7XtQyrYAxtUZRleCaC-38">
          <mxGeometry relative="1" as="geometry">
            <mxPoint x="162" y="1005" as="sourcePoint" />
            <Array as="points">
              <mxPoint x="130" y="1002" />
              <mxPoint x="130" y="854" />
              <mxPoint x="157" y="854" />
            </Array>
          </mxGeometry>
        </mxCell>
        <mxCell id="Fh7XtQyrYAxtUZRleCaC-42" value="是否已完成" style="rhombus;whiteSpace=wrap;html=1;shadow=0;fontFamily=Helvetica;fontSize=12;align=center;strokeWidth=1;spacing=6;spacingTop=-4;" vertex="1" parent="WIyWlLk6GJQsqaUBKTNV-1">
          <mxGeometry x="167" y="977" width="100" height="50" as="geometry" />
        </mxCell>
        <mxCell id="Fh7XtQyrYAxtUZRleCaC-43" style="edgeStyle=orthogonalEdgeStyle;rounded=0;orthogonalLoop=1;jettySize=auto;html=1;entryX=0.5;entryY=0;entryDx=0;entryDy=0;" edge="1" parent="WIyWlLk6GJQsqaUBKTNV-1" source="Fh7XtQyrYAxtUZRleCaC-44" target="Fh7XtQyrYAxtUZRleCaC-42">
          <mxGeometry relative="1" as="geometry" />
        </mxCell>
        <mxCell id="Fh7XtQyrYAxtUZRleCaC-44" value="分页同步班级学生和家长用户数据" style="rounded=1;whiteSpace=wrap;html=1;fontSize=12;glass=0;strokeWidth=1;shadow=0;" vertex="1" parent="WIyWlLk6GJQsqaUBKTNV-1">
          <mxGeometry x="157" y="909" width="120" height="40" as="geometry" />
        </mxCell>
        <mxCell id="Fh7XtQyrYAxtUZRleCaC-47" style="edgeStyle=orthogonalEdgeStyle;rounded=0;orthogonalLoop=1;jettySize=auto;html=1;entryX=0;entryY=0.5;entryDx=0;entryDy=0;entryPerimeter=0;exitX=0;exitY=0.5;exitDx=0;exitDy=0;" edge="1" parent="WIyWlLk6GJQsqaUBKTNV-1" source="Fh7XtQyrYAxtUZRleCaC-46" target="Fh7XtQyrYAxtUZRleCaC-36">
          <mxGeometry relative="1" as="geometry">
            <Array as="points">
              <mxPoint x="91" y="787" />
              <mxPoint x="91" y="1084" />
            </Array>
          </mxGeometry>
        </mxCell>
        <mxCell id="Fh7XtQyrYAxtUZRleCaC-48" value="否" style="edgeLabel;html=1;align=center;verticalAlign=middle;resizable=0;points=[];" vertex="1" connectable="0" parent="Fh7XtQyrYAxtUZRleCaC-47">
          <mxGeometry x="-0.1018" y="3" relative="1" as="geometry">
            <mxPoint as="offset" />
          </mxGeometry>
        </mxCell>
        <mxCell id="Fh7XtQyrYAxtUZRleCaC-50" style="edgeStyle=orthogonalEdgeStyle;rounded=0;orthogonalLoop=1;jettySize=auto;html=1;entryX=0.5;entryY=0;entryDx=0;entryDy=0;" edge="1" parent="WIyWlLk6GJQsqaUBKTNV-1" source="Fh7XtQyrYAxtUZRleCaC-46" target="Fh7XtQyrYAxtUZRleCaC-38">
          <mxGeometry relative="1" as="geometry" />
        </mxCell>
        <mxCell id="Fh7XtQyrYAxtUZRleCaC-46" value="是否是学校机构" style="rhombus;whiteSpace=wrap;html=1;shadow=0;fontFamily=Helvetica;fontSize=12;align=center;strokeWidth=1;spacing=6;spacingTop=-4;" vertex="1" parent="WIyWlLk6GJQsqaUBKTNV-1">
          <mxGeometry x="168" y="763" width="98" height="47" as="geometry" />
        </mxCell>
        <mxCell id="Fh7XtQyrYAxtUZRleCaC-54" value="" style="rounded=0;html=1;jettySize=auto;orthogonalLoop=1;fontSize=11;endArrow=block;endFill=0;endSize=8;strokeWidth=1;shadow=0;labelBackgroundColor=none;edgeStyle=orthogonalEdgeStyle;" edge="1" parent="WIyWlLk6GJQsqaUBKTNV-1" source="Fh7XtQyrYAxtUZRleCaC-55" target="Fh7XtQyrYAxtUZRleCaC-58">
          <mxGeometry relative="1" as="geometry" />
        </mxCell>
        <mxCell id="Fh7XtQyrYAxtUZRleCaC-55" value="数据变更接收" style="rounded=1;whiteSpace=wrap;html=1;fontSize=12;glass=0;strokeWidth=1;shadow=0;" vertex="1" parent="WIyWlLk6GJQsqaUBKTNV-1">
          <mxGeometry x="518" y="623" width="120" height="40" as="geometry" />
        </mxCell>
        <mxCell id="Fh7XtQyrYAxtUZRleCaC-77" value="否" style="edgeStyle=orthogonalEdgeStyle;rounded=0;orthogonalLoop=1;jettySize=auto;html=1;entryX=0;entryY=0.5;entryDx=0;entryDy=0;entryPerimeter=0;exitX=0;exitY=0.5;exitDx=0;exitDy=0;" edge="1" parent="WIyWlLk6GJQsqaUBKTNV-1" source="Fh7XtQyrYAxtUZRleCaC-58" target="Fh7XtQyrYAxtUZRleCaC-61">
          <mxGeometry relative="1" as="geometry">
            <Array as="points">
              <mxPoint x="471" y="717" />
              <mxPoint x="471" y="1069" />
            </Array>
          </mxGeometry>
        </mxCell>
        <mxCell id="Fh7XtQyrYAxtUZRleCaC-78" style="edgeStyle=orthogonalEdgeStyle;rounded=0;orthogonalLoop=1;jettySize=auto;html=1;" edge="1" parent="WIyWlLk6GJQsqaUBKTNV-1" source="Fh7XtQyrYAxtUZRleCaC-58" target="Fh7XtQyrYAxtUZRleCaC-73">
          <mxGeometry relative="1" as="geometry" />
        </mxCell>
        <mxCell id="Fh7XtQyrYAxtUZRleCaC-58" value="数据解密&lt;br&gt;是否成功" style="rhombus;whiteSpace=wrap;html=1;shadow=0;fontFamily=Helvetica;fontSize=12;align=center;strokeWidth=1;spacing=6;spacingTop=-4;" vertex="1" parent="WIyWlLk6GJQsqaUBKTNV-1">
          <mxGeometry x="529" y="693" width="98" height="47" as="geometry" />
        </mxCell>
        <mxCell id="Fh7XtQyrYAxtUZRleCaC-59" style="edgeStyle=orthogonalEdgeStyle;rounded=0;orthogonalLoop=1;jettySize=auto;html=1;entryX=0.5;entryY=0;entryDx=0;entryDy=0;" edge="1" parent="WIyWlLk6GJQsqaUBKTNV-1" source="Fh7XtQyrYAxtUZRleCaC-60" target="Fh7XtQyrYAxtUZRleCaC-55">
          <mxGeometry relative="1" as="geometry" />
        </mxCell>
        <mxCell id="Fh7XtQyrYAxtUZRleCaC-60" value="开始" style="strokeWidth=1;html=1;shape=mxgraph.flowchart.start_1;whiteSpace=wrap;" vertex="1" parent="WIyWlLk6GJQsqaUBKTNV-1">
          <mxGeometry x="543" y="563" width="70" height="40" as="geometry" />
        </mxCell>
        <mxCell id="Fh7XtQyrYAxtUZRleCaC-61" value="结束" style="strokeWidth=1;html=1;shape=mxgraph.flowchart.start_1;whiteSpace=wrap;" vertex="1" parent="WIyWlLk6GJQsqaUBKTNV-1">
          <mxGeometry x="538" y="1049" width="80" height="40" as="geometry" />
        </mxCell>
        <mxCell id="Fh7XtQyrYAxtUZRleCaC-76" style="edgeStyle=orthogonalEdgeStyle;rounded=0;orthogonalLoop=1;jettySize=auto;html=1;" edge="1" parent="WIyWlLk6GJQsqaUBKTNV-1" source="Fh7XtQyrYAxtUZRleCaC-63" target="Fh7XtQyrYAxtUZRleCaC-61">
          <mxGeometry relative="1" as="geometry" />
        </mxCell>
        <mxCell id="Fh7XtQyrYAxtUZRleCaC-63" value="mq发送通知消息" style="rounded=1;whiteSpace=wrap;html=1;fontSize=12;glass=0;strokeWidth=1;shadow=0;" vertex="1" parent="WIyWlLk6GJQsqaUBKTNV-1">
          <mxGeometry x="518" y="971" width="120" height="40" as="geometry" />
        </mxCell>
        <mxCell id="Fh7XtQyrYAxtUZRleCaC-79" style="edgeStyle=orthogonalEdgeStyle;rounded=0;orthogonalLoop=1;jettySize=auto;html=1;entryX=0.5;entryY=0;entryDx=0;entryDy=0;" edge="1" parent="WIyWlLk6GJQsqaUBKTNV-1" source="Fh7XtQyrYAxtUZRleCaC-73" target="Fh7XtQyrYAxtUZRleCaC-74">
          <mxGeometry relative="1" as="geometry" />
        </mxCell>
        <mxCell id="Fh7XtQyrYAxtUZRleCaC-80" value="是" style="edgeLabel;html=1;align=center;verticalAlign=middle;resizable=0;points=[];" vertex="1" connectable="0" parent="Fh7XtQyrYAxtUZRleCaC-79">
          <mxGeometry x="0.434" y="2" relative="1" as="geometry">
            <mxPoint as="offset" />
          </mxGeometry>
        </mxCell>
        <mxCell id="Fh7XtQyrYAxtUZRleCaC-81" value="否" style="edgeStyle=orthogonalEdgeStyle;rounded=0;orthogonalLoop=1;jettySize=auto;html=1;entryX=1;entryY=0.5;entryDx=0;entryDy=0;entryPerimeter=0;exitX=1;exitY=0.5;exitDx=0;exitDy=0;" edge="1" parent="WIyWlLk6GJQsqaUBKTNV-1" source="Fh7XtQyrYAxtUZRleCaC-73" target="Fh7XtQyrYAxtUZRleCaC-61">
          <mxGeometry relative="1" as="geometry">
            <Array as="points">
              <mxPoint x="681" y="779" />
              <mxPoint x="681" y="1069" />
            </Array>
          </mxGeometry>
        </mxCell>
        <mxCell id="Fh7XtQyrYAxtUZRleCaC-73" value="是否为&lt;br&gt;平台应用" style="rhombus;whiteSpace=wrap;html=1;shadow=0;fontFamily=Helvetica;fontSize=12;align=center;strokeWidth=1;spacing=6;spacingTop=-4;" vertex="1" parent="WIyWlLk6GJQsqaUBKTNV-1">
          <mxGeometry x="529" y="757" width="98" height="44" as="geometry" />
        </mxCell>
        <mxCell id="Fh7XtQyrYAxtUZRleCaC-82" style="edgeStyle=orthogonalEdgeStyle;rounded=0;orthogonalLoop=1;jettySize=auto;html=1;" edge="1" parent="WIyWlLk6GJQsqaUBKTNV-1" source="Fh7XtQyrYAxtUZRleCaC-74" target="Fh7XtQyrYAxtUZRleCaC-75">
          <mxGeometry relative="1" as="geometry" />
        </mxCell>
        <mxCell id="Fh7XtQyrYAxtUZRleCaC-83" value="是" style="edgeLabel;html=1;align=center;verticalAlign=middle;resizable=0;points=[];" vertex="1" connectable="0" parent="Fh7XtQyrYAxtUZRleCaC-82">
          <mxGeometry x="0.2308" y="3" relative="1" as="geometry">
            <mxPoint as="offset" />
          </mxGeometry>
        </mxCell>
        <mxCell id="Fh7XtQyrYAxtUZRleCaC-84" value="否" style="edgeStyle=orthogonalEdgeStyle;rounded=0;orthogonalLoop=1;jettySize=auto;html=1;entryX=0;entryY=0.75;entryDx=0;entryDy=0;exitX=0;exitY=0.5;exitDx=0;exitDy=0;" edge="1" parent="WIyWlLk6GJQsqaUBKTNV-1" source="Fh7XtQyrYAxtUZRleCaC-74" target="Fh7XtQyrYAxtUZRleCaC-63">
          <mxGeometry relative="1" as="geometry">
            <Array as="points">
              <mxPoint x="501" y="852" />
              <mxPoint x="501" y="1001" />
            </Array>
          </mxGeometry>
        </mxCell>
        <mxCell id="Fh7XtQyrYAxtUZRleCaC-74" value="是否安装应用" style="rhombus;whiteSpace=wrap;html=1;shadow=0;fontFamily=Helvetica;fontSize=12;align=center;strokeWidth=1;spacing=6;spacingTop=-4;" vertex="1" parent="WIyWlLk6GJQsqaUBKTNV-1">
          <mxGeometry x="529" y="828" width="98" height="47" as="geometry" />
        </mxCell>
        <mxCell id="Fh7XtQyrYAxtUZRleCaC-85" style="edgeStyle=orthogonalEdgeStyle;rounded=0;orthogonalLoop=1;jettySize=auto;html=1;entryX=1;entryY=0.5;entryDx=0;entryDy=0;entryPerimeter=0;exitX=1;exitY=0.5;exitDx=0;exitDy=0;" edge="1" parent="WIyWlLk6GJQsqaUBKTNV-1" source="Fh7XtQyrYAxtUZRleCaC-75" target="Fh7XtQyrYAxtUZRleCaC-61">
          <mxGeometry relative="1" as="geometry" />
        </mxCell>
        <mxCell id="Fh7XtQyrYAxtUZRleCaC-75" value="安装应用处理" style="rounded=1;whiteSpace=wrap;html=1;fontSize=12;glass=0;strokeWidth=1;shadow=0;" vertex="1" parent="WIyWlLk6GJQsqaUBKTNV-1">
          <mxGeometry x="524.5" y="907" width="107" height="32" as="geometry" />
        </mxCell>
        <mxCell id="Fh7XtQyrYAxtUZRleCaC-109" value="" style="rounded=0;html=1;jettySize=auto;orthogonalLoop=1;fontSize=11;endArrow=block;endFill=0;endSize=8;strokeWidth=1;shadow=0;labelBackgroundColor=none;edgeStyle=orthogonalEdgeStyle;" edge="1" parent="WIyWlLk6GJQsqaUBKTNV-1" source="Fh7XtQyrYAxtUZRleCaC-110" target="Fh7XtQyrYAxtUZRleCaC-129">
          <mxGeometry relative="1" as="geometry">
            <mxPoint x="211" y="1378" as="targetPoint" />
          </mxGeometry>
        </mxCell>
        <mxCell id="Fh7XtQyrYAxtUZRleCaC-110" value="mq消息" style="rounded=1;whiteSpace=wrap;html=1;fontSize=12;glass=0;strokeWidth=1;shadow=0;" vertex="1" parent="WIyWlLk6GJQsqaUBKTNV-1">
          <mxGeometry x="159" y="1314" width="103" height="32" as="geometry" />
        </mxCell>
        <mxCell id="Fh7XtQyrYAxtUZRleCaC-114" style="edgeStyle=orthogonalEdgeStyle;rounded=0;orthogonalLoop=1;jettySize=auto;html=1;entryX=0.5;entryY=0;entryDx=0;entryDy=0;" edge="1" parent="WIyWlLk6GJQsqaUBKTNV-1" source="Fh7XtQyrYAxtUZRleCaC-115" target="Fh7XtQyrYAxtUZRleCaC-110">
          <mxGeometry relative="1" as="geometry" />
        </mxCell>
        <mxCell id="Fh7XtQyrYAxtUZRleCaC-115" value="开始" style="strokeWidth=1;html=1;shape=mxgraph.flowchart.start_1;whiteSpace=wrap;" vertex="1" parent="WIyWlLk6GJQsqaUBKTNV-1">
          <mxGeometry x="176" y="1248" width="70" height="40" as="geometry" />
        </mxCell>
        <mxCell id="Fh7XtQyrYAxtUZRleCaC-116" value="结束" style="strokeWidth=1;html=1;shape=mxgraph.flowchart.start_1;whiteSpace=wrap;" vertex="1" parent="WIyWlLk6GJQsqaUBKTNV-1">
          <mxGeometry x="170" y="1542" width="80" height="40" as="geometry" />
        </mxCell>
        <mxCell id="Fh7XtQyrYAxtUZRleCaC-131" style="edgeStyle=orthogonalEdgeStyle;rounded=0;orthogonalLoop=1;jettySize=auto;html=1;" edge="1" parent="WIyWlLk6GJQsqaUBKTNV-1" source="Fh7XtQyrYAxtUZRleCaC-129" target="Fh7XtQyrYAxtUZRleCaC-130">
          <mxGeometry relative="1" as="geometry" />
        </mxCell>
        <mxCell id="Fh7XtQyrYAxtUZRleCaC-129" value="消息处理中心" style="rounded=1;whiteSpace=wrap;html=1;fontSize=12;glass=0;strokeWidth=1;shadow=0;" vertex="1" parent="WIyWlLk6GJQsqaUBKTNV-1">
          <mxGeometry x="157" y="1367" width="107" height="32" as="geometry" />
        </mxCell>
        <mxCell id="Fh7XtQyrYAxtUZRleCaC-133" style="edgeStyle=orthogonalEdgeStyle;rounded=0;orthogonalLoop=1;jettySize=auto;html=1;entryX=0.5;entryY=0;entryDx=0;entryDy=0;" edge="1" parent="WIyWlLk6GJQsqaUBKTNV-1" source="Fh7XtQyrYAxtUZRleCaC-130" target="Fh7XtQyrYAxtUZRleCaC-132">
          <mxGeometry relative="1" as="geometry" />
        </mxCell>
        <mxCell id="Fh7XtQyrYAxtUZRleCaC-130" value="业务处理中心" style="rounded=1;whiteSpace=wrap;html=1;fontSize=12;glass=0;strokeWidth=1;shadow=0;" vertex="1" parent="WIyWlLk6GJQsqaUBKTNV-1">
          <mxGeometry x="157" y="1425" width="107" height="31" as="geometry" />
        </mxCell>
        <mxCell id="Fh7XtQyrYAxtUZRleCaC-134" style="edgeStyle=orthogonalEdgeStyle;rounded=0;orthogonalLoop=1;jettySize=auto;html=1;" edge="1" parent="WIyWlLk6GJQsqaUBKTNV-1" source="Fh7XtQyrYAxtUZRleCaC-132" target="Fh7XtQyrYAxtUZRleCaC-116">
          <mxGeometry relative="1" as="geometry" />
        </mxCell>
        <mxCell id="Fh7XtQyrYAxtUZRleCaC-132" value="业务处理明细" style="rounded=1;whiteSpace=wrap;html=1;fontSize=12;glass=0;strokeWidth=1;shadow=0;" vertex="1" parent="WIyWlLk6GJQsqaUBKTNV-1">
          <mxGeometry x="157" y="1483" width="107" height="32" as="geometry" />
        </mxCell>
      </root>
    </mxGraphModel>
  </diagram>
</mxfile>
